<?xml version="1.0" encoding="UTF-8" ?>
<svg version="1.1" width="3200" height="3200" xmlns="http://www.w3.org/2000/svg" shape-rendering="crispEdges">
<rect x="1400" y="200" width="100" height="100" fill="#913D3D" />
<rect x="1500" y="200" width="100" height="100" fill="#913D3D" />
<rect x="1600" y="200" width="100" height="100" fill="#913D3D" />
<rect x="1400" y="300" width="100" height="100" fill="#913D3D" />
<rect x="1500" y="300" width="100" height="100" fill="#A54646" />
<rect x="1600" y="300" width="100" height="100" fill="#833535" />
<rect x="1300" y="400" width="100" height="100" fill="#833535" />
<rect x="1400" y="400" width="100" height="100" fill="#A54646" />
<rect x="1500" y="400" width="100" height="100" fill="#A54646" />
<rect x="1600" y="400" width="100" height="100" fill="#A54646" />
<rect x="1700" y="400" width="100" height="100" fill="#833535" />
<rect x="1100" y="500" width="100" height="100" fill="#833535" />
<rect x="1200" y="500" width="100" height="100" fill="#833535" />
<rect x="1300" y="500" width="100" height="100" fill="#A54646" />
<rect x="1400" y="500" width="100" height="100" fill="#A54646" />
<rect x="1500" y="500" width="100" height="100" fill="#A54646" />
<rect x="1600" y="500" width="100" height="100" fill="#A54646" />
<rect x="1700" y="500" width="100" height="100" fill="#A54646" />
<rect x="1800" y="500" width="100" height="100" fill="#833535" />
<rect x="1900" y="500" width="100" height="100" fill="#833535" />
<rect x="1000" y="600" width="100" height="100" fill="#833535" />
<rect x="1100" y="600" width="100" height="100" fill="#A54646" />
<rect x="1200" y="600" width="100" height="100" fill="#A54646" />
<rect x="1300" y="600" width="100" height="100" fill="#A54646" />
<rect x="1400" y="600" width="100" height="100" fill="#A54646" />
<rect x="1500" y="600" width="100" height="100" fill="#A54646" />
<rect x="1600" y="600" width="100" height="100" fill="#A54646" />
<rect x="1700" y="600" width="100" height="100" fill="#A54646" />
<rect x="1800" y="600" width="100" height="100" fill="#A54646" />
<rect x="1900" y="600" width="100" height="100" fill="#A54646" />
<rect x="2000" y="600" width="100" height="100" fill="#833535" />
<rect x="900" y="700" width="100" height="100" fill="#833535" />
<rect x="1000" y="700" width="100" height="100" fill="#A54646" />
<rect x="1100" y="700" width="100" height="100" fill="#F8D9D1" />
<rect x="1200" y="700" width="100" height="100" fill="#833535" />
<rect x="1300" y="700" width="100" height="100" fill="#833535" />
<rect x="1400" y="700" width="100" height="100" fill="#F8D9D1" />
<rect x="1500" y="700" width="100" height="100" fill="#F8D9D1" />
<rect x="1600" y="700" width="100" height="100" fill="#F8D9D1" />
<rect x="1700" y="700" width="100" height="100" fill="#833535" />
<rect x="1800" y="700" width="100" height="100" fill="#833535" />
<rect x="1900" y="700" width="100" height="100" fill="#F8D9D1" />
<rect x="2000" y="700" width="100" height="100" fill="#A54646" />
<rect x="2100" y="700" width="100" height="100" fill="#833535" />
<rect x="900" y="800" width="100" height="100" fill="#833535" />
<rect x="1000" y="800" width="100" height="100" fill="#F8D9D1" />
<rect x="1100" y="800" width="100" height="100" fill="#833535" />
<rect x="1200" y="800" width="100" height="100" fill="#F8D9D1" />
<rect x="1300" y="800" width="100" height="100" fill="#F8D9D1" />
<rect x="1400" y="800" width="100" height="100" fill="#833535" />
<rect x="1500" y="800" width="100" height="100" fill="#F8D9D1" />
<rect x="1600" y="800" width="100" height="100" fill="#833535" />
<rect x="1700" y="800" width="100" height="100" fill="#F8D9D1" />
<rect x="1800" y="800" width="100" height="100" fill="#F8D9D1" />
<rect x="1900" y="800" width="100" height="100" fill="#833535" />
<rect x="2000" y="800" width="100" height="100" fill="#F8D9D1" />
<rect x="2100" y="800" width="100" height="100" fill="#833535" />
<rect x="900" y="900" width="100" height="100" fill="#833535" />
<rect x="1000" y="900" width="100" height="100" fill="#F8D9D1" />
<rect x="1100" y="900" width="100" height="100" fill="#F8D9D1" />
<rect x="1200" y="900" width="100" height="100" fill="#F8D9D1" />
<rect x="1300" y="900" width="100" height="100" fill="#F8D9D1" />
<rect x="1400" y="900" width="100" height="100" fill="#F8D9D1" />
<rect x="1500" y="900" width="100" height="100" fill="#F8D9D1" />
<rect x="1600" y="900" width="100" height="100" fill="#F8D9D1" />
<rect x="1700" y="900" width="100" height="100" fill="#F8D9D1" />
<rect x="1800" y="900" width="100" height="100" fill="#F8D9D1" />
<rect x="1900" y="900" width="100" height="100" fill="#F8D9D1" />
<rect x="2000" y="900" width="100" height="100" fill="#F8D9D1" />
<rect x="2100" y="900" width="100" height="100" fill="#833535" />
<rect x="900" y="1000" width="100" height="100" fill="#833535" />
<rect x="1000" y="1000" width="100" height="100" fill="#F8D9D1" />
<rect x="1100" y="1000" width="100" height="100" fill="#F8D9D1" />
<rect x="1200" y="1000" width="100" height="100" fill="#000000" />
<rect x="1300" y="1000" width="100" height="100" fill="#000000" />
<rect x="1400" y="1000" width="100" height="100" fill="#000000" />
<rect x="1500" y="1000" width="100" height="100" fill="#F8D9D1" />
<rect x="1600" y="1000" width="100" height="100" fill="#000000" />
<rect x="1700" y="1000" width="100" height="100" fill="#000000" />
<rect x="1800" y="1000" width="100" height="100" fill="#000000" />
<rect x="1900" y="1000" width="100" height="100" fill="#F8D9D1" />
<rect x="2000" y="1000" width="100" height="100" fill="#F8D9D1" />
<rect x="2100" y="1000" width="100" height="100" fill="#833535" />
<rect x="900" y="1100" width="100" height="100" fill="#000000" />
<rect x="1000" y="1100" width="100" height="100" fill="#000000" />
<rect x="1100" y="1100" width="100" height="100" fill="#000000" />
<rect x="1200" y="1100" width="100" height="100" fill="#FFFFFF" />
<rect x="1300" y="1100" width="100" height="100" fill="#FFFFFF" />
<rect x="1400" y="1100" width="100" height="100" fill="#FFFFFF" />
<rect x="1500" y="1100" width="100" height="100" fill="#000000" />
<rect x="1600" y="1100" width="100" height="100" fill="#FFFFFF" />
<rect x="1700" y="1100" width="100" height="100" fill="#FFFFFF" />
<rect x="1800" y="1100" width="100" height="100" fill="#FFFFFF" />
<rect x="1900" y="1100" width="100" height="100" fill="#000000" />
<rect x="2000" y="1100" width="100" height="100" fill="#000000" />
<rect x="2100" y="1100" width="100" height="100" fill="#000000" />
<rect x="900" y="1200" width="100" height="100" fill="#F8D9D1" />
<rect x="1000" y="1200" width="100" height="100" fill="#F8D9D1" />
<rect x="1100" y="1200" width="100" height="100" fill="#000000" />
<rect x="1200" y="1200" width="100" height="100" fill="#FFFFFF" />
<rect x="1300" y="1200" width="100" height="100" fill="#000000" />
<rect x="1400" y="1200" width="100" height="100" fill="#FFFFFF" />
<rect x="1500" y="1200" width="100" height="100" fill="#000000" />
<rect x="1600" y="1200" width="100" height="100" fill="#FFFFFF" />
<rect x="1700" y="1200" width="100" height="100" fill="#000000" />
<rect x="1800" y="1200" width="100" height="100" fill="#FFFFFF" />
<rect x="1900" y="1200" width="100" height="100" fill="#000000" />
<rect x="2000" y="1200" width="100" height="100" fill="#F8D9D1" />
<rect x="2100" y="1200" width="100" height="100" fill="#F8D9D1" />
<rect x="900" y="1300" width="100" height="100" fill="#F8D9D1" />
<rect x="1000" y="1300" width="100" height="100" fill="#F8D9D1" />
<rect x="1100" y="1300" width="100" height="100" fill="#F8D9D1" />
<rect x="1200" y="1300" width="100" height="100" fill="#000000" />
<rect x="1300" y="1300" width="100" height="100" fill="#000000" />
<rect x="1400" y="1300" width="100" height="100" fill="#000000" />
<rect x="1500" y="1300" width="100" height="100" fill="#DDB4AA" />
<rect x="1600" y="1300" width="100" height="100" fill="#000000" />
<rect x="1700" y="1300" width="100" height="100" fill="#000000" />
<rect x="1800" y="1300" width="100" height="100" fill="#000000" />
<rect x="1900" y="1300" width="100" height="100" fill="#F8D9D1" />
<rect x="2000" y="1300" width="100" height="100" fill="#F8D9D1" />
<rect x="2100" y="1300" width="100" height="100" fill="#F8D9D1" />
<rect x="1000" y="1400" width="100" height="100" fill="#F8D9D1" />
<rect x="1100" y="1400" width="100" height="100" fill="#F8D9D1" />
<rect x="1200" y="1400" width="100" height="100" fill="#F8D9D1" />
<rect x="1300" y="1400" width="100" height="100" fill="#F8D9D1" />
<rect x="1400" y="1400" width="100" height="100" fill="#F8D9D1" />
<rect x="1500" y="1400" width="100" height="100" fill="#A54646" />
<rect x="1600" y="1400" width="100" height="100" fill="#F8D9D1" />
<rect x="1700" y="1400" width="100" height="100" fill="#F8D9D1" />
<rect x="1800" y="1400" width="100" height="100" fill="#F8D9D1" />
<rect x="1900" y="1400" width="100" height="100" fill="#F8D9D1" />
<rect x="2000" y="1400" width="100" height="100" fill="#F8D9D1" />
<rect x="1000" y="1500" width="100" height="100" fill="#A54646" />
<rect x="1100" y="1500" width="100" height="100" fill="#F8D9D1" />
<rect x="1200" y="1500" width="100" height="100" fill="#F8D9D1" />
<rect x="1300" y="1500" width="100" height="100" fill="#F8D9D1" />
<rect x="1400" y="1500" width="100" height="100" fill="#A54646" />
<rect x="1500" y="1500" width="100" height="100" fill="#F8D9D1" />
<rect x="1600" y="1500" width="100" height="100" fill="#A54646" />
<rect x="1700" y="1500" width="100" height="100" fill="#F8D9D1" />
<rect x="1800" y="1500" width="100" height="100" fill="#F8D9D1" />
<rect x="1900" y="1500" width="100" height="100" fill="#F8D9D1" />
<rect x="2000" y="1500" width="100" height="100" fill="#A54646" />
<rect x="1000" y="1600" width="100" height="100" fill="#833535" />
<rect x="1100" y="1600" width="100" height="100" fill="#A54646" />
<rect x="1200" y="1600" width="100" height="100" fill="#A54646" />
<rect x="1300" y="1600" width="100" height="100" fill="#A54646" />
<rect x="1400" y="1600" width="100" height="100" fill="#F8D9D1" />
<rect x="1500" y="1600" width="100" height="100" fill="#E1B2D2" />
<rect x="1600" y="1600" width="100" height="100" fill="#F8D9D1" />
<rect x="1700" y="1600" width="100" height="100" fill="#A54646" />
<rect x="1800" y="1600" width="100" height="100" fill="#A54646" />
<rect x="1900" y="1600" width="100" height="100" fill="#A54646" />
<rect x="2000" y="1600" width="100" height="100" fill="#833535" />
<rect x="1100" y="1700" width="100" height="100" fill="#833535" />
<rect x="1200" y="1700" width="100" height="100" fill="#833535" />
<rect x="1300" y="1700" width="100" height="100" fill="#A54646" />
<rect x="1400" y="1700" width="100" height="100" fill="#A54646" />
<rect x="1500" y="1700" width="100" height="100" fill="#A54646" />
<rect x="1600" y="1700" width="100" height="100" fill="#A54646" />
<rect x="1700" y="1700" width="100" height="100" fill="#A54646" />
<rect x="1800" y="1700" width="100" height="100" fill="#833535" />
<rect x="1900" y="1700" width="100" height="100" fill="#833535" />
<rect x="1000" y="1800" width="100" height="100" fill="#9BADB7" />
<rect x="1100" y="1800" width="100" height="100" fill="#9BADB7" />
<rect x="1200" y="1800" width="100" height="100" fill="#9BADB7" />
<rect x="1300" y="1800" width="100" height="100" fill="#833535" />
<rect x="1400" y="1800" width="100" height="100" fill="#833535" />
<rect x="1500" y="1800" width="100" height="100" fill="#833535" />
<rect x="1600" y="1800" width="100" height="100" fill="#833535" />
<rect x="1700" y="1800" width="100" height="100" fill="#833535" />
<rect x="1800" y="1800" width="100" height="100" fill="#9BADB7" />
<rect x="1900" y="1800" width="100" height="100" fill="#9BADB7" />
<rect x="2000" y="1800" width="100" height="100" fill="#9BADB7" />
<rect x="900" y="1900" width="100" height="100" fill="#9BADB7" />
<rect x="1000" y="1900" width="100" height="100" fill="#9BADB7" />
<rect x="1100" y="1900" width="100" height="100" fill="#9BADB7" />
<rect x="1200" y="1900" width="100" height="100" fill="#9BADB7" />
<rect x="1300" y="1900" width="100" height="100" fill="#9BADB7" />
<rect x="1400" y="1900" width="100" height="100" fill="#9BADB7" />
<rect x="1500" y="1900" width="100" height="100" fill="#9BADB7" />
<rect x="1600" y="1900" width="100" height="100" fill="#9BADB7" />
<rect x="1700" y="1900" width="100" height="100" fill="#9BADB7" />
<rect x="1800" y="1900" width="100" height="100" fill="#9BADB7" />
<rect x="1900" y="1900" width="100" height="100" fill="#9BADB7" />
<rect x="2000" y="1900" width="100" height="100" fill="#9BADB7" />
<rect x="2100" y="1900" width="100" height="100" fill="#9BADB7" />
<rect x="900" y="2000" width="100" height="100" fill="#9BADB7" />
<rect x="1000" y="2000" width="100" height="100" fill="#9BADB7" />
<rect x="1100" y="2000" width="100" height="100" fill="#847E87" />
<rect x="1200" y="2000" width="100" height="100" fill="#9BADB7" />
<rect x="1300" y="2000" width="100" height="100" fill="#9BADB7" />
<rect x="1400" y="2000" width="100" height="100" fill="#9BADB7" />
<rect x="1500" y="2000" width="100" height="100" fill="#9BADB7" />
<rect x="1600" y="2000" width="100" height="100" fill="#9BADB7" />
<rect x="1700" y="2000" width="100" height="100" fill="#9BADB7" />
<rect x="1800" y="2000" width="100" height="100" fill="#9BADB7" />
<rect x="1900" y="2000" width="100" height="100" fill="#847E87" />
<rect x="2000" y="2000" width="100" height="100" fill="#9BADB7" />
<rect x="2100" y="2000" width="100" height="100" fill="#9BADB7" />
<rect x="900" y="2100" width="100" height="100" fill="#9BADB7" />
<rect x="1000" y="2100" width="100" height="100" fill="#9BADB7" />
<rect x="1100" y="2100" width="100" height="100" fill="#847E87" />
<rect x="1200" y="2100" width="100" height="100" fill="#9BADB7" />
<rect x="1300" y="2100" width="100" height="100" fill="#9BADB7" />
<rect x="1400" y="2100" width="100" height="100" fill="#9BADB7" />
<rect x="1500" y="2100" width="100" height="100" fill="#9BADB7" />
<rect x="1600" y="2100" width="100" height="100" fill="#9BADB7" />
<rect x="1700" y="2100" width="100" height="100" fill="#9BADB7" />
<rect x="1800" y="2100" width="100" height="100" fill="#9BADB7" />
<rect x="1900" y="2100" width="100" height="100" fill="#847E87" />
<rect x="2000" y="2100" width="100" height="100" fill="#9BADB7" />
<rect x="2100" y="2100" width="100" height="100" fill="#9BADB7" />
<rect x="900" y="2200" width="100" height="100" fill="#9BADB7" />
<rect x="1000" y="2200" width="100" height="100" fill="#9BADB7" />
<rect x="1100" y="2200" width="100" height="100" fill="#847E87" />
<rect x="1200" y="2200" width="100" height="100" fill="#9BADB7" />
<rect x="1300" y="2200" width="100" height="100" fill="#9BADB7" />
<rect x="1400" y="2200" width="100" height="100" fill="#9BADB7" />
<rect x="1500" y="2200" width="100" height="100" fill="#9BADB7" />
<rect x="1600" y="2200" width="100" height="100" fill="#9BADB7" />
<rect x="1700" y="2200" width="100" height="100" fill="#9BADB7" />
<rect x="1800" y="2200" width="100" height="100" fill="#9BADB7" />
<rect x="1900" y="2200" width="100" height="100" fill="#847E87" />
<rect x="2000" y="2200" width="100" height="100" fill="#9BADB7" />
<rect x="2100" y="2200" width="100" height="100" fill="#9BADB7" />
<rect x="900" y="2300" width="100" height="100" fill="#9BADB7" />
<rect x="1000" y="2300" width="100" height="100" fill="#9BADB7" />
<rect x="1100" y="2300" width="100" height="100" fill="#847E87" />
<rect x="1200" y="2300" width="100" height="100" fill="#9BADB7" />
<rect x="1300" y="2300" width="100" height="100" fill="#9BADB7" />
<rect x="1400" y="2300" width="100" height="100" fill="#9BADB7" />
<rect x="1500" y="2300" width="100" height="100" fill="#9BADB7" />
<rect x="1600" y="2300" width="100" height="100" fill="#9BADB7" />
<rect x="1700" y="2300" width="100" height="100" fill="#9BADB7" />
<rect x="1800" y="2300" width="100" height="100" fill="#9BADB7" />
<rect x="1900" y="2300" width="100" height="100" fill="#847E87" />
<rect x="2000" y="2300" width="100" height="100" fill="#9BADB7" />
<rect x="2100" y="2300" width="100" height="100" fill="#9BADB7" />
<rect x="900" y="2400" width="100" height="100" fill="#F8D9D1" />
<rect x="1000" y="2400" width="100" height="100" fill="#F8D9D1" />
<rect x="1100" y="2400" width="100" height="100" fill="#24498A" />
<rect x="1200" y="2400" width="100" height="100" fill="#305DAC" />
<rect x="1300" y="2400" width="100" height="100" fill="#305DAC" />
<rect x="1400" y="2400" width="100" height="100" fill="#305DAC" />
<rect x="1500" y="2400" width="100" height="100" fill="#305DAC" />
<rect x="1600" y="2400" width="100" height="100" fill="#305DAC" />
<rect x="1700" y="2400" width="100" height="100" fill="#305DAC" />
<rect x="1800" y="2400" width="100" height="100" fill="#305DAC" />
<rect x="1900" y="2400" width="100" height="100" fill="#24498A" />
<rect x="2000" y="2400" width="100" height="100" fill="#F8D9D1" />
<rect x="2100" y="2400" width="100" height="100" fill="#F8D9D1" />
<rect x="1100" y="2500" width="100" height="100" fill="#24498A" />
<rect x="1200" y="2500" width="100" height="100" fill="#305DAC" />
<rect x="1300" y="2500" width="100" height="100" fill="#305DAC" />
<rect x="1400" y="2500" width="100" height="100" fill="#305DAC" />
<rect x="1500" y="2500" width="100" height="100" fill="#305DAC" />
<rect x="1600" y="2500" width="100" height="100" fill="#305DAC" />
<rect x="1700" y="2500" width="100" height="100" fill="#305DAC" />
<rect x="1800" y="2500" width="100" height="100" fill="#305DAC" />
<rect x="1900" y="2500" width="100" height="100" fill="#24498A" />
<rect x="1100" y="2600" width="100" height="100" fill="#24498A" />
<rect x="1200" y="2600" width="100" height="100" fill="#305DAC" />
<rect x="1300" y="2600" width="100" height="100" fill="#305DAC" />
<rect x="1400" y="2600" width="100" height="100" fill="#305DAC" />
<rect x="1500" y="2600" width="100" height="100" fill="#24498A" />
<rect x="1600" y="2600" width="100" height="100" fill="#305DAC" />
<rect x="1700" y="2600" width="100" height="100" fill="#305DAC" />
<rect x="1800" y="2600" width="100" height="100" fill="#305DAC" />
<rect x="1900" y="2600" width="100" height="100" fill="#24498A" />
<rect x="1100" y="2700" width="100" height="100" fill="#24498A" />
<rect x="1200" y="2700" width="100" height="100" fill="#305DAC" />
<rect x="1300" y="2700" width="100" height="100" fill="#305DAC" />
<rect x="1400" y="2700" width="100" height="100" fill="#24498A" />
<rect x="1600" y="2700" width="100" height="100" fill="#24498A" />
<rect x="1700" y="2700" width="100" height="100" fill="#305DAC" />
<rect x="1800" y="2700" width="100" height="100" fill="#305DAC" />
<rect x="1900" y="2700" width="100" height="100" fill="#24498A" />
<rect x="1100" y="2800" width="100" height="100" fill="#24498A" />
<rect x="1200" y="2800" width="100" height="100" fill="#305DAC" />
<rect x="1300" y="2800" width="100" height="100" fill="#305DAC" />
<rect x="1400" y="2800" width="100" height="100" fill="#24498A" />
<rect x="1600" y="2800" width="100" height="100" fill="#24498A" />
<rect x="1700" y="2800" width="100" height="100" fill="#305DAC" />
<rect x="1800" y="2800" width="100" height="100" fill="#305DAC" />
<rect x="1900" y="2800" width="100" height="100" fill="#24498A" />
<rect x="1000" y="2900" width="100" height="100" fill="#DF7126" />
<rect x="1100" y="2900" width="100" height="100" fill="#DF7126" />
<rect x="1200" y="2900" width="100" height="100" fill="#DF7126" />
<rect x="1300" y="2900" width="100" height="100" fill="#D9A066" />
<rect x="1400" y="2900" width="100" height="100" fill="#D9A066" />
<rect x="1600" y="2900" width="100" height="100" fill="#D9A066" />
<rect x="1700" y="2900" width="100" height="100" fill="#D9A066" />
<rect x="1800" y="2900" width="100" height="100" fill="#DF7126" />
<rect x="1900" y="2900" width="100" height="100" fill="#DF7126" />
<rect x="2000" y="2900" width="100" height="100" fill="#DF7126" />
<rect x="1000" y="3000" width="100" height="100" fill="#D9A066" />
<rect x="1100" y="3000" width="100" height="100" fill="#D9A066" />
<rect x="1200" y="3000" width="100" height="100" fill="#D9A066" />
<rect x="1300" y="3000" width="100" height="100" fill="#D9A066" />
<rect x="1400" y="3000" width="100" height="100" fill="#D9A066" />
<rect x="1600" y="3000" width="100" height="100" fill="#D9A066" />
<rect x="1700" y="3000" width="100" height="100" fill="#D9A066" />
<rect x="1800" y="3000" width="100" height="100" fill="#D9A066" />
<rect x="1900" y="3000" width="100" height="100" fill="#D9A066" />
<rect x="2000" y="3000" width="100" height="100" fill="#D9A066" />
</svg>